<?xml version="1.0" standalone="no"?>
<!DOCTYPE svg PUBLIC "-//W3C//DTD SVG 20010904//EN"
 "http://www.w3.org/TR/2001/REC-SVG-20010904/DTD/svg10.dtd">
<svg version="1.0" xmlns="http://www.w3.org/2000/svg"
 width="55.000000pt" height="54.000000pt" viewBox="0 0 55.000000 54.000000"
 preserveAspectRatio="xMidYMid meet">

<g transform="translate(0.000000,54.000000) scale(0.100000,-0.100000)"
fill="#000000" stroke="none">
<path d="M430 505 c0 -33 2 -35 35 -35 28 0 35 -4 35 -20 0 -11 -7 -20 -15
-20 -8 0 -15 -7 -15 -15 0 -8 7 -15 15 -15 8 0 15 7 15 15 0 8 9 15 20 15 13
0 20 7 20 20 0 13 -7 20 -20 20 -16 0 -20 7 -20 35 0 33 -2 35 -35 35 -33 0
-35 -2 -35 -35z"/>
<path d="M10 410 c-6 -4 -10 -22 -8 -41 3 -32 6 -34 41 -36 l37 -2 0 44 c0 42
-1 44 -29 43 -16 -1 -35 -4 -41 -8z"/>
<path d="M290 406 c-6 -8 -11 -25 -10 -38 5 -62 2 -66 -37 -61 -51 6 -89 -10
-113 -49 -18 -28 -21 -46 -18 -116 3 -77 5 -86 31 -108 25 -21 35 -23 125 -21
l97 2 3 194 c2 149 -1 196 -10 203 -20 12 -54 9 -68 -6z m-9 -241 c-1 -38 -5
-73 -7 -77 -8 -12 -59 -9 -72 4 -15 15 -16 102 -1 129 8 16 19 19 46 17 l37
-3 -3 -70z"/>
<path d="M406 411 c-2 -3 -3 -21 -2 -40 1 -36 18 -46 64 -36 28 7 30 42 2 55
-11 6 -20 13 -20 18 0 9 -39 12 -44 3z"/>
<path d="M2 158 l3 -143 38 -3 37 -3 0 145 0 146 -40 0 -41 0 3 -142z"/>
<path d="M402 158 l3 -143 38 -3 37 -3 0 145 0 146 -40 0 -41 0 3 -142z"/>
</g>
</svg>
